<?xml version="1.0"?>
<svg xmlns="http://www.w3.org/2000/svg" width="113" height="352" stroke="#E8E8E8" stroke-width="0.4">
<line stroke-width="0.6" x1="57" y1="343" x2="57" y2="319"/>
<line stroke-width="0.6" x1="57" y1="343" x2="54" y2="351"/>
<line stroke-width="0.6" x1="57" y1="343" x2="59" y2="351"/>
<rect x="0" y="25" fill="#E8E8E8" width="112" height="31"/>
<path fill="#E8E8E8" d="M112,19c0,0-0-19-56-19c-56,0-56,19-56,19H112z"/>
<line stroke="#FFF" x1="56" y1="19" x2="56" y2="57"/>
<line stroke="#FFF" x1="68" y1="19" x2="68" y2="57"/>
<line stroke="#FFF" x1="81" y1="19" x2="81" y2="57"/>
<line stroke="#FFF" x1="93" y1="19" x2="93" y2="57"/>
<line stroke="#FFF" x1="105" y1="19" x2="105" y2="57"/>
<line stroke="#FFF" x1="44" y1="57" x2="44" y2="19"/>
<line stroke="#FFF" x1="31" y1="57" x2="31" y2="19"/>
<line stroke="#FFF" x1="7" y1="57" x2="7" y2="19"/>
<line stroke="#FFF" x1="19" y1="57" x2="19" y2="19"/>
<line stroke="#FFF" x1="0" y1="19" x2="0" y2="57"/>
<line stroke="#FFF" x1="112" y1="19" x2="112" y2="57"/>
<line x1="56" y1="57" x2="57" y2="321"/>
<line x1="44" y1="57" x2="57" y2="321"/>
<line x1="31" y1="57" x2="57" y2="321"/>
<line x1="19" y1="57" x2="57" y2="321"/>
<line x1="7" y1="57" x2="57" y2="321"/>
<line x1="0" y1="57" x2="57" y2="321"/>
<line x1="68" y1="57" x2="57" y2="321"/>
<line x1="81" y1="57" x2="57" y2="321"/>
<line x1="93" y1="57" x2="57" y2="321"/>
<line x1="105" y1="57" x2="57" y2="321"/>
<line x1="112" y1="57" x2="57" y2="321"/>
</svg>