<?xml version="1.0"?>
<svg xmlns="http://www.w3.org/2000/svg" width="900" height="400" fill="#FFF">
<circle cx="72" cy="400" r="0.2"/>
<circle cx="78" cy="277" r="0.5"/>
<circle cx="420" cy="112" r="0.7"/>
<circle cx="781" cy="251" r="0.4"/>
<circle cx="280" cy="235" r="0.6"/>
<circle cx="219" cy="28" r="0.7"/>
<circle cx="391" cy="358" r="0.3"/>
<circle cx="349" cy="222" r="0.9"/>
<circle cx="291" cy="246" r="0.7"/>
<circle cx="526" cy="6" r="0.8"/>
<circle cx="742" cy="263" r="0.8"/>
<circle cx="285" cy="83" r="0.6"/>
<circle cx="793" cy="273" r="0.7"/>
<circle cx="62" cy="279" r="0.5"/>
<circle cx="493" cy="321" r="0.9"/>
<circle cx="815" cy="101" r="0.5"/>
<circle cx="401" cy="304" r="0.0"/>
<circle cx="343" cy="384" r="0.6"/>
<circle cx="842" cy="138" r="0.4"/>
<circle cx="299" cy="44" r="0.5"/>
<circle cx="796" cy="58" r="1.0"/>
<circle cx="461" cy="297" r="0.4"/>
<circle cx="157" cy="377" r="0.5"/>
<circle cx="478" cy="173" r="0.9"/>
<circle cx="528" cy="164" r="0.5"/>
<circle cx="387" cy="268" r="0.6"/>
<circle cx="40" cy="45" r="0.3"/>
<circle cx="220" cy="96" r="0.7"/>
<circle cx="181" cy="384" r="1.0"/>
<circle cx="133" cy="240" r="0.4"/>
<circle cx="119" cy="177" r="0.4"/>
<circle cx="12" cy="141" r="0.7"/>
<circle cx="461" cy="392" r="0.3"/>
<circle cx="447" cy="194" r="0.6"/>
<circle cx="372" cy="375" r="0.2"/>
<circle cx="407" cy="134" r="0.8"/>
<circle cx="154" cy="72" r="0.4"/>
<circle cx="742" cy="29" r="0.4"/>
<circle cx="483" cy="220" r="0.4"/>
<circle cx="731" cy="91" r="0.7"/>
<circle cx="72" cy="62" r="0.9"/>
<circle cx="704" cy="73" r="0.8"/>
<circle cx="382" cy="381" r="0.9"/>
<circle cx="44" cy="314" r="0.7"/>
<circle cx="269" cy="155" r="1.0"/>
<circle cx="812" cy="165" r="0.5"/>
<circle cx="27" cy="327" r="0.4"/>
<circle cx="671" cy="47" r="0.7"/>
<circle cx="727" cy="259" r="0.6"/>
<circle cx="845" cy="176" r="0.4"/>
<circle cx="751" cy="321" r="0.3"/>
<circle cx="422" cy="32" r="0.4"/>
<circle cx="32" cy="377" r="0.3"/>
<circle cx="728" cy="81" r="0.5"/>
<circle cx="600" cy="354" r="0.3"/>
<circle cx="193" cy="295" r="0.9"/>
<circle cx="550" cy="62" r="0.4"/>
<circle cx="95" cy="89" r="0.2"/>
<circle cx="553" cy="257" r="0.7"/>
<circle cx="103" cy="64" r="0.7"/>
<circle cx="543" cy="165" r="1.0"/>
<circle cx="570" cy="87" r="0.9"/>
<circle cx="421" cy="274" r="0.3"/>
<circle cx="700" cy="30" r="0.2"/>
<circle cx="38" cy="88" r="0.7"/>
<circle cx="432" cy="318" r="1.0"/>
<circle cx="637" cy="296" r="1.0"/>
<circle cx="371" cy="94" r="0.4"/>
<circle cx="384" cy="201" r="0.3"/>
<circle cx="721" cy="193" r="0.4"/>
<circle cx="142" cy="367" r="0.3"/>
<circle cx="692" cy="183" r="0.5"/>
<circle cx="110" cy="152" r="0.2"/>
</svg>